<svg width="48" height="48" viewBox="0 0 48 48" fill="none" xmlns="http://www.w3.org/2000/svg">
<rect width="48" height="48" rx="10.2857" fill="#EBB811" fill-opacity="0.25"/>
<path d="M22.7701 12.6798C23.0428 12.005 23.7032 11.5635 24.4319 11.5635H35.9244C36.9079 11.5563 37.7083 12.3496 37.7118 13.333C37.7118 13.5627 37.6688 13.7888 37.5862 14.0006L28.7855 35.8444C28.5128 36.5227 27.8524 36.9642 27.1237 36.9606H15.6312C14.6477 36.9642 13.8473 36.1746 13.8438 35.1911C13.8438 34.9614 13.8868 34.7353 13.9694 34.5236L22.7701 12.6798Z" fill="url(#paint0_linear_75_7083)"/>
<path d="M17.905 26.8032C22.1151 26.8032 25.5248 23.3899 25.5248 19.1833C25.5248 14.9768 22.1151 11.5635 17.905 11.5635C13.6949 11.5635 10.2852 14.9768 10.2852 19.1833C10.2852 23.3934 13.6949 26.8032 17.905 26.8032Z" fill="#0A33FF"/>
<path d="M25.5251 19.1834C25.5251 23.3935 22.1046 26.8068 17.8945 26.8032C17.6289 26.8032 17.3633 26.7889 17.0977 26.7601L22.5783 13.1643C24.4411 14.6072 25.5287 16.8289 25.5251 19.1834Z" fill="url(#paint1_linear_75_7083)"/>
<defs>
<linearGradient id="paint0_linear_75_7083" x1="30.5622" y1="11.5851" x2="20.9647" y2="37.018" gradientUnits="userSpaceOnUse">
<stop stop-color="#FFD60A"/>
<stop offset="1" stop-color="#F5BE09"/>
</linearGradient>
<linearGradient id="paint1_linear_75_7083" x1="25.1231" y1="14.2159" x2="19.6783" y2="27.7795" gradientUnits="userSpaceOnUse">
<stop stop-color="#051A80"/>
<stop offset="1" stop-color="#0A33FF"/>
</linearGradient>
</defs>
</svg>
